<svg
    aria-label="Vercel's logo, a triangle, sits in the center of a grid, surrounded by rays of light which are the colors of the rainbow."
    class="triangle_triangle__B8xCk" fill="none" role="img" viewBox="0 0 1200 700">
    <polygon fill="var(--geist-background)"
        points="426,600.4589468389948 774,600.4589468389948 600,299.0821063220102"></polygon>
    <line opacity="1" stroke="var(--geist-foreground)" x1="600" x2="774" y1="299.0821063220102"
        y2="600.4589468389948"></line>
    <line opacity="1" stroke="var(--geist-foreground)" x1="600" x2="426" y1="299.0821063220102"
        y2="600.4589468389948"></line>
    <line opacity="0.9714285714285714" stroke="var(--geist-foreground)" x1="600" x2="774"
        y1="303.354707840896" y2="600.4589468389948"></line>
    <line opacity="0.9714285714285714" stroke="var(--geist-foreground)" x1="600" x2="426"
        y1="303.354707840896" y2="600.4589468389948"></line>
    <line opacity="0.9428571428571428" stroke="var(--geist-foreground)" x1="600" x2="774"
        y1="307.6273093597819" y2="600.4589468389948"></line>
    <line opacity="0.9428571428571428" stroke="var(--geist-foreground)" x1="600" x2="426"
        y1="307.6273093597819" y2="600.4589468389948"></line>
    <line opacity="0.9142857142857143" stroke="var(--geist-foreground)" x1="600" x2="774"
        y1="311.89991087866775" y2="600.4589468389948"></line>
    <line opacity="0.9142857142857143" stroke="var(--geist-foreground)" x1="600" x2="426"
        y1="311.89991087866775" y2="600.4589468389948"></line>
    <line opacity="0.8857142857142857" stroke="var(--geist-foreground)" x1="600" x2="774"
        y1="316.17251239755365" y2="600.4589468389948"></line>
    <line opacity="0.8857142857142857" stroke="var(--geist-foreground)" x1="600" x2="426"
        y1="316.17251239755365" y2="600.4589468389948"></line>
    <line opacity="0.8571428571428572" stroke="var(--geist-foreground)" x1="600" x2="774"
        y1="320.4451139164395" y2="600.4589468389948"></line>
    <line opacity="0.8571428571428572" stroke="var(--geist-foreground)" x1="600" x2="426"
        y1="320.4451139164395" y2="600.4589468389948"></line>
    <line opacity="0.8285714285714285" stroke="var(--geist-foreground)" x1="600" x2="774"
        y1="324.7177154353253" y2="600.4589468389948"></line>
    <line opacity="0.8285714285714285" stroke="var(--geist-foreground)" x1="600" x2="426"
        y1="324.7177154353253" y2="600.4589468389948"></line>
    <line opacity="0.8" stroke="var(--geist-foreground)" x1="600" x2="774" y1="328.9903169542112"
        y2="600.4589468389948"></line>
    <line opacity="0.8" stroke="var(--geist-foreground)" x1="600" x2="426" y1="328.9903169542112"
        y2="600.4589468389948"></line>
    <line opacity="0.7714285714285715" stroke="var(--geist-foreground)" x1="600" x2="774"
        y1="333.26291847309705" y2="600.4589468389948"></line>
    <line opacity="0.7714285714285715" stroke="var(--geist-foreground)" x1="600" x2="426"
        y1="333.26291847309705" y2="600.4589468389948"></line>
    <line opacity="0.7428571428571429" stroke="var(--geist-foreground)" x1="600" x2="774"
        y1="337.53551999198294" y2="600.4589468389948"></line>
    <line opacity="0.7428571428571429" stroke="var(--geist-foreground)" x1="600" x2="426"
        y1="337.53551999198294" y2="600.4589468389948"></line>
    <line opacity="0.7142857142857143" stroke="var(--geist-foreground)" x1="600" x2="774"
        y1="341.8081215108688" y2="600.4589468389948"></line>
    <line opacity="0.7142857142857143" stroke="var(--geist-foreground)" x1="600" x2="426"
        y1="341.8081215108688" y2="600.4589468389948"></line>
    <line opacity="0.6857142857142857" stroke="var(--geist-foreground)" x1="600" x2="774"
        y1="346.08072302975467" y2="600.4589468389948"></line>
    <line opacity="0.6857142857142857" stroke="var(--geist-foreground)" x1="600" x2="426"
        y1="346.08072302975467" y2="600.4589468389948"></line>
    <line opacity="0.6571428571428571" stroke="var(--geist-foreground)" x1="600" x2="774"
        y1="350.3533245486405" y2="600.4589468389948"></line>
    <line opacity="0.6571428571428571" stroke="var(--geist-foreground)" x1="600" x2="426"
        y1="350.3533245486405" y2="600.4589468389948"></line>
    <line opacity="0.6285714285714286" stroke="var(--geist-foreground)" x1="600" x2="774"
        y1="354.6259260675264" y2="600.4589468389948"></line>
    <line opacity="0.6285714285714286" stroke="var(--geist-foreground)" x1="600" x2="426"
        y1="354.6259260675264" y2="600.4589468389948"></line>
    <line opacity="0.6" stroke="var(--geist-foreground)" x1="600" x2="774" y1="358.89852758641223"
        y2="600.4589468389948"></line>
    <line opacity="0.6" stroke="var(--geist-foreground)" x1="600" x2="426" y1="358.89852758641223"
        y2="600.4589468389948"></line>
    <line opacity="0.5714285714285714" stroke="var(--geist-foreground)" x1="600" x2="774"
        y1="363.17112910529806" y2="600.4589468389948"></line>
    <line opacity="0.5714285714285714" stroke="var(--geist-foreground)" x1="600" x2="426"
        y1="363.17112910529806" y2="600.4589468389948"></line>
    <line opacity="0.5428571428571429" stroke="var(--geist-foreground)" x1="600" x2="774"
        y1="367.44373062418396" y2="600.4589468389948"></line>
    <line opacity="0.5428571428571429" stroke="var(--geist-foreground)" x1="600" x2="426"
        y1="367.44373062418396" y2="600.4589468389948"></line>
    <line opacity="0.5142857142857142" stroke="var(--geist-foreground)" x1="600" x2="774"
        y1="371.7163321430698" y2="600.4589468389948"></line>
    <line opacity="0.5142857142857142" stroke="var(--geist-foreground)" x1="600" x2="426"
        y1="371.7163321430698" y2="600.4589468389948"></line>
    <line opacity="0.48571428571428577" stroke="var(--geist-foreground)" x1="600" x2="774"
        y1="375.9889336619557" y2="600.4589468389948"></line>
    <line opacity="0.48571428571428577" stroke="var(--geist-foreground)" x1="600" x2="426"
        y1="375.9889336619557" y2="600.4589468389948"></line>
    <line opacity="0.4571428571428572" stroke="var(--geist-foreground)" x1="600" x2="774"
        y1="380.2615351808415" y2="600.4589468389948"></line>
    <line opacity="0.4571428571428572" stroke="var(--geist-foreground)" x1="600" x2="426"
        y1="380.2615351808415" y2="600.4589468389948"></line>
    <line opacity="0.4285714285714286" stroke="var(--geist-foreground)" x1="600" x2="774"
        y1="384.53413669972736" y2="600.4589468389948"></line>
    <line opacity="0.4285714285714286" stroke="var(--geist-foreground)" x1="600" x2="426"
        y1="384.53413669972736" y2="600.4589468389948"></line>
    <line opacity="0.4" stroke="var(--geist-foreground)" x1="600" x2="774" y1="388.80673821861325"
        y2="600.4589468389948"></line>
    <line opacity="0.4" stroke="var(--geist-foreground)" x1="600" x2="426" y1="388.80673821861325"
        y2="600.4589468389948"></line>
    <line opacity="0.37142857142857144" stroke="var(--geist-foreground)" x1="600" x2="774"
        y1="393.0793397374991" y2="600.4589468389948"></line>
    <line opacity="0.37142857142857144" stroke="var(--geist-foreground)" x1="600" x2="426"
        y1="393.0793397374991" y2="600.4589468389948"></line>
    <line opacity="0.34285714285714286" stroke="var(--geist-foreground)" x1="600" x2="774"
        y1="397.351941256385" y2="600.4589468389948"></line>
    <line opacity="0.34285714285714286" stroke="var(--geist-foreground)" x1="600" x2="426"
        y1="397.351941256385" y2="600.4589468389948"></line>
    <line opacity="0.3142857142857143" stroke="var(--geist-foreground)" x1="600" x2="774"
        y1="401.6245427752708" y2="600.4589468389948"></line>
    <line opacity="0.3142857142857143" stroke="var(--geist-foreground)" x1="600" x2="426"
        y1="401.6245427752708" y2="600.4589468389948"></line>
    <line opacity="0.2857142857142857" stroke="var(--geist-foreground)" x1="600" x2="774"
        y1="405.89714429415665" y2="600.4589468389948"></line>
    <line opacity="0.2857142857142857" stroke="var(--geist-foreground)" x1="600" x2="426"
        y1="405.89714429415665" y2="600.4589468389948"></line>
    <line opacity="0.2571428571428571" stroke="var(--geist-foreground)" x1="600" x2="774"
        y1="410.16974581304254" y2="600.4589468389948"></line>
    <line opacity="0.2571428571428571" stroke="var(--geist-foreground)" x1="600" x2="426"
        y1="410.16974581304254" y2="600.4589468389948"></line>
    <line opacity="0.22857142857142854" stroke="var(--geist-foreground)" x1="600" x2="774"
        y1="414.44234733192843" y2="600.4589468389948"></line>
    <line opacity="0.22857142857142854" stroke="var(--geist-foreground)" x1="600" x2="426"
        y1="414.44234733192843" y2="600.4589468389948"></line>
    <line opacity="0.19999999999999996" stroke="var(--geist-foreground)" x1="600" x2="774"
        y1="418.71494885081427" y2="600.4589468389948"></line>
    <line opacity="0.19999999999999996" stroke="var(--geist-foreground)" x1="600" x2="426"
        y1="418.71494885081427" y2="600.4589468389948"></line>
    <line opacity="0.17142857142857137" stroke="var(--geist-foreground)" x1="600" x2="774"
        y1="422.9875503697001" y2="600.4589468389948"></line>
    <line opacity="0.17142857142857137" stroke="var(--geist-foreground)" x1="600" x2="426"
        y1="422.9875503697001" y2="600.4589468389948"></line>
    <line opacity="0.1428571428571429" stroke="var(--geist-foreground)" x1="600" x2="774"
        y1="427.26015188858594" y2="600.4589468389948"></line>
    <line opacity="0.1428571428571429" stroke="var(--geist-foreground)" x1="600" x2="426"
        y1="427.26015188858594" y2="600.4589468389948"></line>
    <line opacity="0.11428571428571432" stroke="var(--geist-foreground)" x1="600" x2="774"
        y1="431.53275340747183" y2="600.4589468389948"></line>
    <line opacity="0.11428571428571432" stroke="var(--geist-foreground)" x1="600" x2="426"
        y1="431.53275340747183" y2="600.4589468389948"></line>
    <line opacity="0.08571428571428574" stroke="var(--geist-foreground)" x1="600" x2="774"
        y1="435.8053549263577" y2="600.4589468389948"></line>
    <line opacity="0.08571428571428574" stroke="var(--geist-foreground)" x1="600" x2="426"
        y1="435.8053549263577" y2="600.4589468389948"></line>
    <line opacity="0.05714285714285716" stroke="var(--geist-foreground)" x1="600" x2="774"
        y1="440.07795644524356" y2="600.4589468389948"></line>
    <line opacity="0.05714285714285716" stroke="var(--geist-foreground)" x1="600" x2="426"
        y1="440.07795644524356" y2="600.4589468389948"></line>
    <line opacity="0.02857142857142858" stroke="var(--geist-foreground)" x1="600" x2="774"
        y1="444.3505579641294" y2="600.4589468389948"></line>
    <line opacity="0.02857142857142858" stroke="var(--geist-foreground)" x1="600" x2="426"
        y1="444.3505579641294" y2="600.4589468389948"></line>
</svg>